<?xml version="1.0" encoding="utf-8"?>
<!-- Generator: Adobe Illustrator 19.0.0, SVG Export Plug-In . SVG Version: 6.00 Build 0)  -->
<svg version="1.1" id="Layer_1" xmlns="http://www.w3.org/2000/svg" xmlns:xlink="http://www.w3.org/1999/xlink" x="0px" y="0px"
	 viewBox="0 0 500 500" style="enable-background:new 0 0 500 500;" xml:space="preserve">
<style type="text/css">
	.st0{fill:#CC0000;}
</style>
<g id="XMLID_1_">
	<polygon id="XMLID_9_" class="st0" points="67.5,204.9 67.5,232.1 76.5,232.1 76.5,277.1 94.6,295.1 139.6,295.1 157.7,277.1 
		157.7,232.1 166.7,232.1 166.7,204.9 121.6,204.9 121.6,232.1 130.7,232.1 130.7,268 103.5,268 103.5,232.1 112.6,232.1 
		112.6,204.9 	"/>
	<path id="XMLID_10_" d="M185.6,206l-3.2,0.1c-1.2,0-1.7,0.1-2.1,0.6c-0.2,0.3-0.3,0.6-0.4,0.7c0,0.2-0.1,0.3-0.2,0.3
		c-0.1,0-0.2-0.1-0.2-0.3c0-0.3,0.4-2.3,0.4-2.4c0.1-0.3,0.1-0.4,0.3-0.4c0.2,0,0.4,0.2,0.9,0.3c0.6,0.1,1.4,0.1,2.1,0.1h8.4
		c1.4,0,1.9-0.2,2-0.2c0.1,0,0.2,0.1,0.2,0.4c0,0.4-0.1,1.9-0.1,2.5c0,0.2-0.1,0.3-0.2,0.3c-0.2,0-0.2-0.1-0.2-0.4l0-0.2
		c0-0.6-0.6-1.1-2.5-1.2l-2.7-0.1v8.7c0,1.9,0,3.6,0.1,4.5c0.1,0.6,0.2,1.1,0.8,1.1c0.3,0,0.8,0.1,1.1,0.1c0.2,0,0.3,0.1,0.3,0.2
		c0,0.1-0.2,0.2-0.4,0.2c-1.4,0-2.7-0.1-3.3-0.1c-0.5,0-1.8,0.1-2.7,0.1c-0.3,0-0.4-0.1-0.4-0.2c0-0.1,0.1-0.2,0.3-0.2
		c0.3,0,0.6,0,0.8-0.1c0.4-0.1,0.6-0.6,0.6-1.2c0.1-0.9,0.1-2.6,0.1-4.5V206z"/>
	<path id="XMLID_11_" d="M209.7,211.6c0.1,0,0.1,0,0.1-0.1V211c0-3.2,0-3.8,0-4.5c0-0.7-0.2-1.1-0.9-1.2c-0.2,0-0.5-0.1-0.8-0.1
		c-0.2,0-0.4,0-0.4-0.2s0.1-0.2,0.4-0.2c1.1,0,2.5,0.1,3,0.1c0.5,0,1.8-0.1,2.7-0.1c0.3,0,0.4,0,0.4,0.2s-0.1,0.2-0.4,0.2
		c-0.2,0-0.4,0-0.6,0.1c-0.6,0.1-0.7,0.5-0.8,1.2c0,0.7,0,1.3,0,4.5v3.7c0,1.9,0,3.6,0.1,4.5c0.1,0.6,0.2,1.1,0.8,1.1
		c0.3,0,0.8,0.1,1.1,0.1c0.2,0,0.3,0.1,0.3,0.2c0,0.1-0.2,0.2-0.4,0.2c-1.4,0-2.7-0.1-3.3-0.1c-0.5,0-1.8,0.1-2.6,0.1
		c-0.3,0-0.4-0.1-0.4-0.2c0-0.1,0.1-0.2,0.3-0.2c0.3,0,0.6,0,0.8-0.1c0.4-0.1,0.5-0.6,0.6-1.2c0.1-0.9,0.1-2.6,0.1-4.5v-1.9
		l-0.1-0.1h-8.1c-0.1,0-0.1,0-0.1,0.1v1.9c0,1.9,0,3.6,0.1,4.5c0.1,0.6,0.2,1.1,0.8,1.1c0.3,0,0.8,0.1,1.1,0.1
		c0.2,0,0.3,0.1,0.3,0.2c0,0.1-0.2,0.2-0.4,0.2c-1.4,0-2.7-0.1-3.3-0.1c-0.5,0-1.8,0.1-2.7,0.1c-0.3,0-0.4-0.1-0.4-0.2
		c0-0.1,0.1-0.2,0.3-0.2c0.3,0,0.6,0,0.8-0.1c0.4-0.1,0.5-0.6,0.6-1.2c0.1-0.9,0.1-2.6,0.1-4.5V211c0-3.2,0-3.8,0-4.5
		c0-0.7-0.2-1.1-0.9-1.2c-0.2,0-0.5-0.1-0.8-0.1c-0.2,0-0.4,0-0.4-0.2s0.1-0.2,0.4-0.2c1.1,0,2.5,0.1,3.1,0.1c0.5,0,1.8-0.1,2.7-0.1
		c0.3,0,0.4,0,0.4,0.2s-0.1,0.2-0.4,0.2c-0.2,0-0.4,0-0.6,0.1c-0.6,0.1-0.7,0.5-0.8,1.2c0,0.7,0,1.3,0,4.5v0.4
		c0,0.1,0.1,0.1,0.1,0.1H209.7z"/>
	<path id="XMLID_12_" d="M220.5,211c0-3.2,0-3.8,0-4.5c0-0.7-0.2-1.1-0.9-1.2c-0.2,0-0.5-0.1-0.8-0.1c-0.2,0-0.4,0-0.4-0.2
		c0-0.1,0.1-0.2,0.5-0.2c1.1,0,2.5,0.1,3,0.1c0.7,0,4.9,0,5.3,0c0.4,0,0.7-0.1,0.9-0.1c0.1,0,0.2-0.1,0.3-0.1c0.1,0,0.1,0.1,0.1,0.2
		c0,0.1-0.1,0.4-0.2,1.4c0,0.2-0.1,1.1-0.1,1.4c0,0.1-0.1,0.2-0.2,0.2c-0.1,0-0.2-0.1-0.2-0.3c0-0.1,0-0.5-0.1-0.8
		c-0.1-0.4-0.4-0.6-1.4-0.8c-0.4,0-2.6-0.1-3-0.1c-0.1,0-0.1,0.1-0.1,0.2v5.4c0,0.1,0,0.2,0.1,0.2c0.5,0,2.9,0,3.4,0
		c0.5,0,0.8-0.1,1-0.3c0.1-0.2,0.2-0.3,0.3-0.3c0.1,0,0.1,0,0.1,0.2c0,0.1-0.1,0.5-0.2,1.5c0,0.4-0.1,1.3-0.1,1.4
		c0,0.2,0,0.4-0.2,0.4c-0.1,0-0.2-0.1-0.2-0.2c0-0.2,0-0.5-0.1-0.8c-0.1-0.4-0.4-0.7-1.2-0.8c-0.4,0-2.5-0.1-3-0.1
		c-0.1,0-0.1,0.1-0.1,0.2v1.7c0,0.7,0,2.7,0,3.3c0,1.5,0.4,1.8,2.5,1.8c0.6,0,1.4,0,2-0.3c0.6-0.3,0.8-0.7,1-1.6
		c0-0.2,0.1-0.3,0.2-0.3c0.2,0,0.2,0.2,0.2,0.4c0,0.5-0.2,1.9-0.3,2.3c-0.1,0.6-0.3,0.6-1.1,0.6c-3.2,0-4.6-0.1-5.9-0.1
		c-0.5,0-1.8,0.1-2.7,0.1c-0.3,0-0.4-0.1-0.4-0.2c0-0.1,0.1-0.2,0.3-0.2c0.3,0,0.6,0,0.8-0.1c0.4-0.1,0.5-0.6,0.6-1.2
		c0.1-0.9,0.1-2.6,0.1-4.5V211z"/>
	<path id="XMLID_13_" d="M183.5,241.5c0-5.5,0-6.5-0.1-7.6c-0.1-1.2-0.4-1.8-1.5-2c-0.3-0.1-0.9-0.1-1.2-0.1c-0.1,0-0.3-0.1-0.3-0.2
		c0-0.2,0.2-0.3,0.6-0.3c1.6,0,3.7,0.1,4.1,0.1c0.3,0,2.4-0.1,3.5-0.1c0.4,0,0.6,0.1,0.6,0.3c0,0.1-0.1,0.2-0.3,0.2
		c-0.2,0-0.5,0-0.9,0.1c-1,0.1-1.2,0.8-1.3,2c-0.1,1.1-0.1,2.1-0.1,7.6v4.9c0,5.1,1.1,7.3,2.6,8.7c1.7,1.6,3.3,1.9,5.3,1.9
		c2.2,0,4.3-1,5.5-2.5c1.6-2,2-5,2-8.6v-4.4c0-5.5,0-6.5-0.1-7.6c-0.1-1.2-0.4-1.8-1.5-2c-0.3-0.1-0.9-0.1-1.2-0.1
		c-0.1,0-0.3-0.1-0.3-0.2c0-0.2,0.2-0.3,0.6-0.3c1.6,0,3.5,0.1,3.7,0.1c0.2,0,1.9-0.1,3-0.1c0.4,0,0.6,0.1,0.6,0.3
		c0,0.1-0.1,0.2-0.3,0.2c-0.2,0-0.5,0-0.9,0.1c-1,0.2-1.2,0.8-1.3,2c-0.1,1.1-0.1,2.1-0.1,7.6v3.8c0,3.8-0.4,8-3.2,10.6
		c-2.5,2.3-5.2,2.6-7.3,2.6c-1.2,0-4.8-0.1-7.3-2.5c-1.7-1.7-3.1-4.1-3.1-9.3V241.5z"/>
	<path id="XMLID_14_" d="M217.6,253.1c0.1,2.9,0.4,3.8,1.4,4.1c0.7,0.2,1.4,0.2,1.8,0.2c0.2,0,0.3,0.1,0.3,0.2
		c0,0.2-0.2,0.3-0.6,0.3c-2,0-3.4-0.1-3.7-0.1s-1.8,0.1-3.4,0.1c-0.4,0-0.6,0-0.6-0.3c0-0.1,0.1-0.2,0.3-0.2c0.3,0,0.9,0,1.4-0.2
		c0.9-0.2,1.1-1.3,1.1-4.5l0-20.2c0-1.4,0.1-1.8,0.4-1.8s0.9,0.8,1.2,1.1c0.5,0.6,5.8,6.3,11.2,12.1c3.5,3.7,7.3,8,8.5,9.2
		l-0.4-17.9c0-2.3-0.3-3.1-1.4-3.4c-0.6-0.1-1.4-0.2-1.7-0.2c-0.2,0-0.3-0.1-0.3-0.2c0-0.2,0.3-0.2,0.7-0.2c1.6,0,3.3,0.1,3.7,0.1
		c0.4,0,1.6-0.1,3-0.1c0.4,0,0.6,0,0.6,0.2c0,0.1-0.1,0.2-0.4,0.2c-0.2,0-0.4,0-0.8,0.1c-1.2,0.2-1.3,1-1.3,3.1l-0.1,20.7
		c0,2.3-0.1,2.5-0.3,2.5c-0.3,0-0.7-0.4-2.6-2.3c-0.4-0.4-5.5-5.5-9.2-9.6c-4.1-4.4-8.1-8.9-9.2-10.1L217.6,253.1z"/>
	<path id="XMLID_15_" d="M254.8,247.7c0,3.4,0,6.2,0.2,7.7c0.1,1,0.3,1.8,1.4,1.9c0.5,0.1,1.3,0.1,1.6,0.1c0.2,0,0.3,0.1,0.3,0.2
		c0,0.2-0.2,0.3-0.6,0.3c-1.9,0-4.2-0.1-4.3-0.1s-2.4,0.1-3.5,0.1c-0.4,0-0.6-0.1-0.6-0.3c0-0.1,0.1-0.2,0.3-0.2
		c0.3,0,0.7-0.1,1.1-0.1c0.7-0.1,0.9-0.9,1-1.9c0.2-1.5,0.2-4.3,0.2-7.7v-6.2c0-5.5,0-6.5-0.1-7.6c-0.1-1.2-0.4-1.8-1.2-2
		c-0.4-0.1-0.8-0.1-1.1-0.1c-0.1,0-0.3-0.1-0.3-0.2c0-0.2,0.2-0.3,0.6-0.3c1.2,0,3.4,0.1,3.6,0.1s2.4-0.1,3.5-0.1
		c0.4,0,0.6,0.1,0.6,0.3c0,0.1-0.1,0.2-0.3,0.2c-0.2,0-0.5,0-0.9,0.1c-1,0.2-1.2,0.8-1.3,2c-0.1,1.1-0.1,2.1-0.1,7.6V247.7z"/>
	<path id="XMLID_16_" d="M276.7,253.6c2-4.7,6.8-17,7.6-19.6c0.2-0.5,0.3-1,0.3-1.3c0-0.3-0.1-0.6-0.5-0.8c-0.4-0.1-1-0.1-1.3-0.1
		c-0.2,0-0.4,0-0.4-0.2c0-0.2,0.2-0.3,0.8-0.3c1.4,0,3,0.1,3.5,0.1c0.2,0,1.7-0.1,2.8-0.1c0.4,0,0.6,0.1,0.6,0.2s-0.1,0.2-0.4,0.2
		c-0.2,0-1,0-1.7,0.4c-0.5,0.3-1,0.9-1.9,3.3c-0.4,1-2.2,5.2-3.9,9.6c-2.2,5.2-3.7,9-4.6,10.7c-1,2.1-1.1,2.7-1.5,2.7
		c-0.4,0-0.6-0.5-1.3-2.2l-8.6-21.6c-0.8-2-1.3-2.4-2.5-2.7c-0.5-0.1-1.1-0.1-1.3-0.1c-0.2,0-0.3-0.1-0.3-0.2c0-0.2,0.4-0.2,0.9-0.2
		c1.7,0,3.7,0.1,4.1,0.1c0.4,0,1.9-0.1,3.3-0.1c0.6,0,1,0.1,1,0.2s-0.1,0.2-0.4,0.2c-0.4,0-1,0-1.3,0.2c-0.4,0.2-0.5,0.5-0.5,0.7
		c0,0.5,0.4,1.6,1,2.9L276.7,253.6z"/>
	<path id="XMLID_17_" d="M297,241.5c0-5.5,0-6.5-0.1-7.6c-0.1-1.2-0.4-1.8-1.5-2c-0.3-0.1-0.9-0.1-1.2-0.1c-0.1,0-0.3-0.1-0.3-0.2
		c0-0.2,0.2-0.3,0.6-0.3c1.6,0,3.8,0.1,4,0.1c0.2,0,7.3,0,8.1,0c0.7,0,1.2-0.1,1.5-0.2c0.2,0,0.3-0.2,0.5-0.2c0.1,0,0.1,0.1,0.1,0.3
		c0,0.2-0.2,0.7-0.3,1.7c0,0.4-0.1,1.9-0.2,2.3c0,0.2-0.1,0.4-0.2,0.4c-0.2,0-0.3-0.2-0.3-0.5c0-0.2,0-0.8-0.2-1.3
		c-0.2-0.6-0.6-1-2.5-1.2c-0.6-0.1-4.4-0.1-4.8-0.1c-0.1,0-0.2,0.1-0.2,0.4v9.7c0,0.2,0,0.4,0.2,0.4c0.5,0,4.8,0,5.6-0.1
		c0.8-0.1,1.3-0.1,1.7-0.5c0.2-0.3,0.4-0.5,0.5-0.5c0.1,0,0.2,0.1,0.2,0.3c0,0.2-0.2,0.8-0.3,2c-0.1,0.7-0.1,2-0.1,2.3
		c0,0.3,0,0.7-0.2,0.7c-0.2,0-0.2-0.1-0.2-0.3c0-0.4,0-0.7-0.1-1.2c-0.1-0.5-0.5-1.1-1.8-1.2c-1-0.1-4.4-0.2-5-0.2
		c-0.2,0-0.3,0.1-0.3,0.2v3.1c0,1.2,0,5.3,0,6c0.1,2.4,0.6,2.9,4.1,2.9c0.9,0,2.5,0,3.4-0.4c0.9-0.4,1.3-1.1,1.6-2.5
		c0.1-0.4,0.1-0.5,0.3-0.5c0.2,0,0.2,0.3,0.2,0.5c0,0.3-0.3,2.7-0.5,3.4c-0.2,0.9-0.5,0.9-1.9,0.9c-5.3,0-7.7-0.2-8.7-0.2
		c-0.1,0-0.7,0-1.4,0c-0.7,0-1.5,0.1-2,0.1c-0.4,0-0.6-0.1-0.6-0.3c0-0.1,0.1-0.2,0.3-0.2c0.3,0,0.7-0.1,1.1-0.1
		c0.7-0.1,0.9-0.9,1-1.9c0.2-1.5,0.2-4.3,0.2-7.7V241.5z"/>
	<path id="XMLID_20_" d="M323.1,244.6c0,0.2,0.1,0.3,0.2,0.4c0.5,0.3,2.2,0.6,3.7,0.6c0.8,0,1.8-0.1,2.6-0.7
		c1.2-0.8,2.2-2.8,2.2-5.4c0-4.4-2.3-7.1-6.1-7.1c-1.1,0-2,0.1-2.4,0.2c-0.2,0.1-0.3,0.2-0.3,0.4V244.6z M320.3,241.5
		c0-5.5,0-6.5-0.1-7.6c-0.1-1.2-0.4-1.8-1.5-2c-0.3-0.1-0.9-0.1-1.2-0.1c-0.1,0-0.3-0.1-0.3-0.2c0-0.2,0.2-0.3,0.6-0.3
		c1.6,0,3.8,0.1,4,0.1c0.4,0,3.1-0.1,4.2-0.1c2.2,0,4.6,0.2,6.5,1.6c0.9,0.6,2.4,2.4,2.4,4.8c0,2.6-1.1,5.2-4.3,8.1
		c2.9,3.7,5.3,6.8,7.3,9c1.9,2,3.4,2.4,4.3,2.5c0.7,0.1,1.2,0.1,1.4,0.1c0.2,0,0.3,0.1,0.3,0.2c0,0.2-0.2,0.3-0.8,0.3h-2.5
		c-2,0-2.9-0.2-3.8-0.7c-1.5-0.8-2.8-2.5-4.8-5.2c-1.5-1.9-3.1-4.3-3.8-5.2c-0.1-0.1-0.2-0.2-0.5-0.2l-4.3-0.1
		c-0.2,0-0.2,0.1-0.2,0.3v0.8c0,3.4,0,6.2,0.2,7.7c0.1,1,0.3,1.8,1.4,1.9c0.5,0.1,1.3,0.1,1.6,0.1c0.2,0,0.3,0.1,0.3,0.2
		c0,0.2-0.2,0.3-0.6,0.3c-1.9,0-4.2-0.1-4.3-0.1c0,0-2.3,0.1-3.3,0.1c-0.4,0-0.6-0.1-0.6-0.3c0-0.1,0.1-0.2,0.3-0.2
		c0.3,0,0.7-0.1,1.1-0.1c0.7-0.1,0.9-0.9,1-1.9c0.2-1.5,0.2-4.3,0.2-7.7V241.5z"/>
	<path id="XMLID_21_" d="M346.1,257.5c-0.5-0.2-0.5-0.4-0.5-1.3c0-1.8,0.1-3.2,0.2-3.7c0-0.4,0.1-0.6,0.3-0.6c0.2,0,0.2,0.1,0.2,0.4
		c0,0.3,0,0.8,0.1,1.3c0.5,2.6,2.9,3.6,5.2,3.6c3.4,0,5-2.4,5-4.7c0-2.4-1-3.8-4.1-6.4l-1.6-1.3c-3.7-3.1-4.6-5.3-4.6-7.7
		c0-3.8,2.8-6.4,7.3-6.4c1.4,0,2.4,0.1,3.3,0.4c0.7,0.1,0.9,0.2,1.2,0.2c0.3,0,0.4,0.1,0.4,0.2c0,0.2-0.1,1.3-0.1,3.7
		c0,0.6-0.1,0.8-0.2,0.8c-0.2,0-0.3-0.2-0.3-0.5c0-0.4-0.2-1.4-0.5-1.8c-0.2-0.4-1.2-1.9-4.4-1.9c-2.4,0-4.3,1.5-4.3,4.1
		c0,2,1,3.2,4.3,5.9l1,0.8c4.2,3.3,5.1,5.5,5.1,8.3c0,1.4-0.6,4.1-3,5.9c-1.5,1.1-3.4,1.5-5.3,1.5
		C349.1,258.4,347.5,258.2,346.1,257.5"/>
	<path id="XMLID_22_" d="M373.2,247.7c0,3.4,0,6.2,0.2,7.7c0.1,1,0.3,1.8,1.4,1.9c0.5,0.1,1.3,0.1,1.6,0.1c0.2,0,0.3,0.1,0.3,0.2
		c0,0.2-0.2,0.3-0.6,0.3c-1.9,0-4.2-0.1-4.3-0.1c-0.2,0-2.4,0.1-3.5,0.1c-0.4,0-0.6-0.1-0.6-0.3c0-0.1,0.1-0.2,0.3-0.2
		c0.3,0,0.7-0.1,1.1-0.1c0.7-0.1,0.9-0.9,1-1.9c0.2-1.5,0.2-4.3,0.2-7.7v-6.2c0-5.5,0-6.5-0.1-7.6c-0.1-1.2-0.4-1.8-1.2-2
		c-0.4-0.1-0.8-0.1-1.1-0.1c-0.1,0-0.3-0.1-0.3-0.2c0-0.2,0.2-0.3,0.6-0.3c1.2,0,3.4,0.1,3.6,0.1c0.2,0,2.4-0.1,3.5-0.1
		c0.4,0,0.6,0.1,0.6,0.3c0,0.1-0.1,0.2-0.3,0.2c-0.2,0-0.5,0-0.9,0.1c-1,0.2-1.2,0.8-1.3,2c-0.1,1.1-0.1,2.1-0.1,7.6V247.7z"/>
	<path id="XMLID_23_" d="M395,247.7c0,3.4,0,6.2,0.2,7.7c0.1,1,0.3,1.8,1.4,1.9c0.5,0.1,1.3,0.1,1.6,0.1c0.2,0,0.3,0.1,0.3,0.2
		c0,0.2-0.2,0.3-0.6,0.3c-1.9,0-4.2-0.1-4.3-0.1c-0.2,0-2.4,0.1-3.5,0.1c-0.4,0-0.6-0.1-0.6-0.3c0-0.1,0.1-0.2,0.3-0.2
		c0.3,0,0.7-0.1,1.1-0.1c0.7-0.1,0.9-0.9,1-1.9c0.2-1.5,0.2-4.3,0.2-7.7v-14.9l-5.2,0.1c-2.2,0-3,0.3-3.6,1.1
		c-0.4,0.6-0.5,0.8-0.6,1.1c-0.1,0.3-0.2,0.4-0.4,0.4c-0.1,0-0.2-0.1-0.2-0.3c0-0.4,0.7-3.4,0.8-3.7c0.1-0.2,0.2-0.7,0.4-0.7
		c0.2,0,0.6,0.4,1.6,0.4c1,0.1,2.4,0.2,2.8,0.2h13.2c1.1,0,1.9-0.1,2.5-0.2c0.5-0.1,0.8-0.2,1-0.2c0.2,0,0.2,0.2,0.2,0.4
		c0,1.1-0.1,3.5-0.1,3.9c0,0.3-0.1,0.5-0.2,0.5c-0.2,0-0.2-0.1-0.3-0.6l0-0.4c-0.1-1.1-1-1.9-4.3-1.9l-4.4-0.1V247.7z"/>
	<path id="XMLID_24_" d="M418.3,248.8c0-1.9-0.4-2.7-0.8-3.7c-0.2-0.6-5-8.3-6.2-10.2c-0.9-1.3-1.8-2.2-2.4-2.6
		c-0.5-0.4-1.2-0.6-1.5-0.6c-0.2,0-0.4-0.1-0.4-0.2c0-0.1,0.1-0.2,0.5-0.2c0.7,0,3.3,0.1,3.5,0.1c0.2,0,1.6-0.1,3-0.1
		c0.4,0,0.5,0.1,0.5,0.2s-0.2,0.2-0.5,0.3c-0.3,0.1-0.5,0.4-0.5,0.6c0,0.4,0.2,0.8,0.5,1.4c0.6,1,5.9,10.1,6.5,11.1
		c0.7-1.5,5.2-9.2,5.9-10.4c0.5-0.7,0.6-1.3,0.6-1.8c0-0.5-0.1-0.9-0.6-1c-0.3-0.1-0.5-0.2-0.5-0.4c0-0.1,0.2-0.2,0.6-0.2
		c0.9,0,2,0.1,2.3,0.1c0.2,0,2.8-0.1,3.4-0.1c0.2,0,0.5,0.1,0.5,0.2c0,0.2-0.2,0.3-0.5,0.3c-0.4,0-1.1,0.1-1.6,0.5
		c-0.7,0.4-1.1,0.8-1.9,1.8c-1.2,1.4-6.1,9.7-6.7,11.2c-0.5,1.3-0.5,2.4-0.5,3.5v3c0,0.6,0,2,0.1,3.5c0.1,1,0.4,1.8,1.4,1.9
		c0.5,0.1,1.3,0.1,1.6,0.1c0.2,0,0.3,0.1,0.3,0.2c0,0.2-0.2,0.3-0.6,0.3c-1.9,0-4.2-0.1-4.3-0.1c-0.2,0-2.4,0.1-3.5,0.1
		c-0.4,0-0.6-0.1-0.6-0.3c0-0.1,0.1-0.2,0.3-0.2c0.3,0,0.7-0.1,1.1-0.1c0.7-0.1,1-0.9,1.1-1.9c0.1-1.5,0.1-3,0.1-3.5V248.8z"/>
	<path id="XMLID_27_" d="M196.2,294.1c3.2,0,9.7-1.8,9.7-12.1c0-8.5-5.2-13-10.7-13c-5.9,0-10.3,3.9-10.3,11.6
		C184.9,288.8,189.8,294.1,196.2,294.1 M195.5,267.8c7.9,0,13.9,5,13.9,13.2c0,7.9-5.6,14.4-14.1,14.4c-9.7,0-13.7-7.5-13.7-13.9
		C181.6,275.9,185.7,267.8,195.5,267.8"/>
	<path id="XMLID_28_" d="M218.6,278.5c0-5.5,0-6.5-0.1-7.6c-0.1-1.2-0.4-1.8-1.5-2c-0.3-0.1-0.9-0.1-1.2-0.1c-0.1,0-0.3-0.1-0.3-0.2
		c0-0.2,0.2-0.3,0.6-0.3c1.6,0,3.8,0.1,4,0.1c0.7,0,7.9,0,8.7,0c0.7,0,1.2,0,1.6-0.1c0.2-0.1,0.4-0.2,0.5-0.2c0.1,0,0.2,0.1,0.2,0.3
		c0,0.2-0.2,0.7-0.3,1.7c0,0.4-0.1,1.9-0.2,2.3c0,0.2-0.1,0.4-0.3,0.4c-0.2,0-0.2-0.2-0.2-0.4c0-0.3-0.1-0.9-0.3-1.3
		c-0.2-0.5-1-1.1-2.4-1.1l-5.4-0.1c-0.2,0-0.3,0.1-0.3,0.4v9.7c0,0.2,0,0.3,0.2,0.3l4.5,0c0.6,0,1.1,0,1.6,0
		c0.8-0.1,1.3-0.2,1.6-0.6c0.1-0.2,0.2-0.4,0.4-0.4c0.1,0,0.2,0.1,0.2,0.3c0,0.2-0.2,0.8-0.3,2c-0.1,0.7-0.1,2.1-0.1,2.4
		c0,0.3,0,0.7-0.2,0.7c-0.2,0-0.2-0.1-0.2-0.3c0-0.4-0.1-0.8-0.2-1.3c-0.2-0.5-0.7-1.1-1.8-1.3c-0.9-0.1-4.7-0.1-5.3-0.1
		c-0.2,0-0.2,0.1-0.2,0.3v3c0,3.4,0,6.2,0.2,7.7c0.1,1,0.3,1.8,1.4,1.9c0.5,0.1,1.3,0.1,1.6,0.1c0.2,0,0.3,0.1,0.3,0.2
		c0,0.2-0.2,0.3-0.6,0.3c-1.9,0-4.2-0.1-4.3-0.1c-0.2,0-2.4,0.1-3.5,0.1c-0.4,0-0.6-0.1-0.6-0.3c0-0.1,0.1-0.2,0.3-0.2
		c0.3,0,0.7-0.1,1.1-0.1c0.7-0.1,0.9-0.9,1-1.9c0.2-1.5,0.2-4.3,0.2-7.7V278.5z"/>
	<path id="XMLID_29_" d="M252.4,278.5c0-5.5,0-6.5-0.1-7.6c-0.1-1.2-0.4-1.8-1.5-2c-0.3-0.1-0.9-0.1-1.2-0.1c-0.1,0-0.3-0.1-0.3-0.2
		c0-0.2,0.2-0.3,0.6-0.3c1.6,0,3.7,0.1,4.1,0.1c0.3,0,2.4-0.1,3.5-0.1c0.4,0,0.6,0.1,0.6,0.3c0,0.1-0.1,0.2-0.3,0.2
		c-0.2,0-0.5,0-0.9,0.1c-1,0.1-1.2,0.8-1.3,2c-0.1,1.1-0.1,2.1-0.1,7.6v4.9c0,5.1,1.1,7.3,2.6,8.7c1.7,1.6,3.3,1.9,5.3,1.9
		c2.2,0,4.3-1,5.5-2.5c1.6-2,2-5,2-8.6v-4.4c0-5.5,0-6.5-0.1-7.6c-0.1-1.2-0.4-1.8-1.5-2c-0.3-0.1-0.9-0.1-1.2-0.1
		c-0.1,0-0.3-0.1-0.3-0.2c0-0.2,0.2-0.3,0.6-0.3c1.6,0,3.5,0.1,3.7,0.1c0.2,0,1.9-0.1,3-0.1c0.4,0,0.6,0.1,0.6,0.3
		c0,0.1-0.1,0.2-0.3,0.2c-0.2,0-0.5,0-0.9,0.1c-1,0.2-1.2,0.8-1.3,2c-0.1,1.1-0.1,2.1-0.1,7.6v3.8c0,3.8-0.4,8-3.2,10.6
		c-2.5,2.3-5.2,2.6-7.3,2.6c-1.2,0-4.8-0.1-7.3-2.5c-1.7-1.7-3.1-4.1-3.1-9.3V278.5z"/>
	<path id="XMLID_30_" d="M293,284.7c0,3.4,0,6.2,0.2,7.7c0.1,1,0.3,1.8,1.4,1.9c0.5,0.1,1.3,0.1,1.6,0.1c0.2,0,0.3,0.1,0.3,0.2
		c0,0.2-0.2,0.3-0.6,0.3c-1.9,0-4.2-0.1-4.3-0.1c-0.2,0-2.4,0.1-3.5,0.1c-0.4,0-0.6-0.1-0.6-0.3c0-0.1,0.1-0.2,0.3-0.2
		c0.3,0,0.7-0.1,1.1-0.1c0.7-0.1,0.9-0.9,1-1.9c0.2-1.5,0.2-4.3,0.2-7.7v-14.9l-5.2,0.1c-2.2,0-3,0.3-3.6,1.1
		c-0.4,0.6-0.5,0.8-0.6,1.1c-0.1,0.3-0.2,0.4-0.4,0.4c-0.1,0-0.2-0.1-0.2-0.3c0-0.4,0.7-3.4,0.8-3.7c0.1-0.2,0.2-0.7,0.4-0.7
		c0.2,0,0.6,0.4,1.6,0.4c1,0.1,2.4,0.2,2.8,0.2h13.2c1.1,0,1.9-0.1,2.5-0.2c0.5-0.1,0.8-0.2,1-0.2c0.2,0,0.2,0.2,0.2,0.4
		c0,1.1-0.1,3.5-0.1,3.9c0,0.3-0.1,0.5-0.2,0.5c-0.2,0-0.2-0.1-0.3-0.6l0-0.4c-0.1-1.1-1-1.9-4.3-1.9l-4.4-0.1V284.7z"/>
	<path id="XMLID_33_" d="M318.8,283.3c0.2,0,0.2-0.1,0.1-0.2l-3.4-9.5c-0.2-0.5-0.4-0.5-0.5,0L312,283c-0.1,0.2,0,0.2,0.1,0.2H318.8
		z M315.1,269.2c0.4-1.2,0.6-1.4,0.8-1.4c0.2,0,0.4,0.2,0.8,1.3c0.5,1.3,6.1,15.9,8.2,21.3c1.3,3.1,2.3,3.7,3,3.9
		c0.5,0.2,1.1,0.2,1.4,0.2c0.2,0,0.4,0,0.4,0.2c0,0.2-0.3,0.3-0.7,0.3c-0.5,0-3.1,0-5.5-0.1c-0.7,0-1.1,0-1.1-0.2
		c0-0.1,0.1-0.2,0.2-0.2c0.2-0.1,0.4-0.4,0.2-1l-3.3-8.7c-0.1-0.1-0.1-0.2-0.3-0.2h-7.6c-0.2,0-0.3,0.1-0.4,0.3l-2.1,6.2
		c-0.3,0.9-0.5,1.7-0.5,2.4c0,0.7,0.7,1,1.3,1h0.4c0.2,0,0.4,0.1,0.4,0.2c0,0.2-0.2,0.3-0.5,0.3c-0.8,0-2.4-0.1-2.8-0.1
		c-0.4,0-2.3,0.1-4,0.1c-0.5,0-0.7-0.1-0.7-0.3c0-0.1,0.1-0.2,0.3-0.2c0.2,0,0.7,0,1-0.1c1.6-0.2,2.3-1.6,3-3.3L315.1,269.2z"/>
	<path id="XMLID_34_" d="M357.8,284.7c0,3.4,0,6.2,0.2,7.7c0.1,1,0.3,1.8,1.4,1.9c0.5,0.1,1.3,0.1,1.6,0.1c0.2,0,0.3,0.1,0.3,0.2
		c0,0.2-0.2,0.3-0.6,0.3c-1.9,0-4.2-0.1-4.3-0.1c-0.2,0-2.4,0.1-3.5,0.1c-0.4,0-0.6-0.1-0.6-0.3c0-0.1,0.1-0.2,0.3-0.2
		c0.3,0,0.7-0.1,1.1-0.1c0.7-0.1,0.9-0.9,1-1.9c0.2-1.5,0.2-4.3,0.2-7.7V281c0-0.1-0.1-0.2-0.2-0.2h-15c-0.1,0-0.2,0-0.2,0.2v3.7
		c0,3.4,0,6.2,0.2,7.7c0.1,1,0.3,1.8,1.4,1.9c0.5,0.1,1.3,0.1,1.6,0.1c0.2,0,0.3,0.1,0.3,0.2c0,0.2-0.2,0.3-0.6,0.3
		c-1.9,0-4.2-0.1-4.3-0.1c-0.2,0-2.4,0.1-3.5,0.1c-0.4,0-0.6-0.1-0.6-0.3c0-0.1,0.1-0.2,0.3-0.2c0.3,0,0.7-0.1,1.1-0.1
		c0.7-0.1,0.9-0.9,1-1.9c0.2-1.5,0.2-4.3,0.2-7.7v-6.2c0-5.5,0-6.5-0.1-7.6c-0.1-1.2-0.4-1.8-1.5-2c-0.3-0.1-0.9-0.1-1.2-0.1
		c-0.1,0-0.3-0.1-0.3-0.2c0-0.2,0.2-0.3,0.6-0.3c1.6,0,3.8,0.1,4,0.1c0.2,0,2.4-0.1,3.5-0.1c0.4,0,0.6,0.1,0.6,0.3
		c0,0.1-0.1,0.2-0.3,0.2c-0.2,0-0.5,0-0.9,0.1c-0.9,0.2-1.2,0.8-1.3,2c-0.1,1.1-0.1,2.1-0.1,7.6v0.7c0,0.2,0.1,0.2,0.2,0.2h15
		c0.1,0,0.2,0,0.2-0.2v-0.7c0-5.5,0-6.5-0.1-7.6c-0.1-1.2-0.4-1.8-1.5-2c-0.3-0.1-0.9-0.1-1.2-0.1c-0.1,0-0.3-0.1-0.3-0.2
		c0-0.2,0.2-0.3,0.6-0.3c1.6,0,3.8,0.1,4,0.1c0.2,0,2.4-0.1,3.5-0.1c0.4,0,0.6,0.1,0.6,0.3c0,0.1-0.1,0.2-0.3,0.2
		c-0.2,0-0.5,0-0.9,0.1c-1,0.2-1.2,0.8-1.3,2c-0.1,1.1-0.1,2.1-0.1,7.6V284.7z"/>
</g>
</svg>
